
<svg version="1.1" id="Capa_1" xmlns="http://www.w3.org/2000/svg" xmlns:xlink="http://www.w3.org/1999/xlink" x="0px" y="0px"
	 viewBox="0 0 25.913 25.913" style="enable-background:new 0 0 25.913 25.913;" xml:space="preserve">
<g>
	<path style="fill:#ffffff;" d="M0.033,3.481c0-1.913,1.551-3.467,3.466-3.467C5.222,0.016,6.652,1.273,6.92,2.92
		c1.87-0.439,3.917,0.071,5.375,1.529l0.199,0.2L9.936,7.207L9.738,7.008c-0.83-0.83-2.176-0.83-3.007,0.001
		c-0.833,0.832-0.832,2.182-0.004,3.01l0.501,0.5l2.558,2.556l2.706,2.704l-2.556,2.559l-2.708-2.706l-2.559-2.557L4.17,12.576
		C2.624,11.03,2.146,8.822,2.732,6.864C1.187,6.515,0.033,5.134,0.033,3.481z M7.531,10.215l2.558,2.557l2.707-2.703l2.558-2.557
		l0.5-0.499c0.833-0.833,2.176-0.832,3.003-0.004c0.83,0.829,0.83,2.176-0.001,3.006l-0.197,0.199l2.557,2.558l0.199-0.2
		c1.529-1.531,2.016-3.709,1.457-5.652c1.699-0.223,3.01-1.677,3.01-3.438c0.001-1.914-1.551-3.467-3.466-3.467
		c-1.752,0-3.201,1.301-3.435,2.989c-1.95-0.572-4.145-0.088-5.684,1.45l-0.5,0.498L10.238,7.51L7.531,10.215z M22.934,18.999
		c0.459-1.882-0.049-3.952-1.52-5.422l-0.502-0.503l-2.557-2.558l-2.699-2.702l-2.559,2.556l2.701,2.704l2.557,2.558l0.5,0.501
		c0.834,0.834,0.832,2.177,0.005,3.004c-0.83,0.83-2.177,0.83-3.007-0.001l-0.197-0.196L13.1,21.5l0.196,0.195
		c1.557,1.556,3.786,2.032,5.754,1.428c0.319,1.584,1.719,2.775,3.396,2.775c1.914,0,3.467-1.552,3.467-3.467
		C25.914,20.682,24.619,19.235,22.934,18.999z M18.053,15.935l-2.557-2.558l-2.701,2.704l-2.557,2.557l-0.5,0.501
		c-0.828,0.829-2.177,0.83-3.01-0.003c-0.83-0.831-0.831-2.176-0.001-3.007l0.198-0.196l-2.559-2.556L4.17,13.571
		c-1.487,1.487-1.988,3.586-1.504,5.484C1.138,19.415,0,20.789,0,22.429c0,1.914,1.552,3.467,3.467,3.467
		c1.647-0.002,3.026-1.148,3.379-2.689c1.89,0.469,3.973-0.033,5.45-1.51l0.501-0.502l2.556-2.56L18.053,15.935z"/>
</g>
<g>
</g>
<g>
</g>
<g>
</g>
<g>
</g>
<g>
</g>
<g>
</g>
<g>
</g>
<g>
</g>
<g>
</g>
<g>
</g>
<g>
</g>
<g>
</g>
<g>
</g>
<g>
</g>
<g>
</g>
</svg>
